<svg viewBox="0 0 736.81 817.18" xmlns="http://www.w3.org/2000/svg"><g transform="translate(269 308)"><path d="m414.22-241h-26.79a53.63 53.63 0 0 0 -37.9 15.7 53.62 53.62 0 0 0 -15.69 37.89v93.77a53.63 53.63 0 0 0 15.69 37.9 53.62 53.62 0 0 0 37.9 15.69h26.79a53.58 53.58 0 0 0 37.89-15.69 53.6 53.6 0 0 0 15.7-37.9v-93.77a53.57 53.57 0 0 0 -15.7-37.89 53.59 53.59 0 0 0 -37.89-15.7zm0 0" fill="#3880b2"/><path d="m414.22.12h-26.79a53.59 53.59 0 0 0 -53.59 53.59v93.77a53.57 53.57 0 0 0 53.59 53.58h26.79a53.59 53.59 0 0 0 53.59-53.58v-93.77a53.59 53.59 0 0 0 -53.59-53.59zm0 0" fill="#dd5354"/><path d="m414.22 241.26h-26.79a53.59 53.59 0 0 0 -53.59 53.59v93.77a53.59 53.59 0 0 0 53.59 53.59h26.79a53.59 53.59 0 0 0 53.59-53.59v-93.77a53.6 53.6 0 0 0 -53.59-53.59zm0 0" fill="#6eba6f"/><path d="m400.82 442.2h26.8v-200.94h-26.8zm0-241.13h26.8v-200.95h-26.8zm0-442.09v201h26.8v-200.98zm0 0" fill="#040000"/><path d="m333.84-308h-495.67v817.18h495.67a67 67 0 0 0 67-67v-683.18a67 67 0 0 0 -67-67zm0 0" fill="#cfad82"/><path d="m-215.41-308a53.59 53.59 0 0 0 -53.59 53.59v710a53.59 53.59 0 0 0 15.7 37.89 53.56 53.56 0 0 0 37.89 15.69h53.58v-817.17zm0 0" fill="#8c6246"/></g><rect fill="#dadbdb" height="216.87" rx="31" width="494.68" x="142.75" y="119.71"/><text fill="#4f4c4b" font-family="ArialRoundedMTBold, Arial Rounded MT Bold" font-size="115" transform="translate(160.79 265.7)">&lt;HTML&gt;</text></svg>